Coordinates
version=1
nRows=6
nColumns=34
inDegrees=yes

Units are S.I. units (second, meters, Newtons, ...)
If the header above contains a line with 'inDegrees', this indicates whether rotational values are in degrees (yes) or radians (no).

endheader
time	pelvis_tilt	pelvis_list	pelvis_rotation	pelvis_tx	pelvis_ty	pelvis_tz	hip_flexion_r	hip_adduction_r	hip_rotation_r	knee_angle_r	ankle_angle_r	subtalar_angle_r	mtp_angle_r	hip_flexion_l	hip_adduction_l	hip_rotation_l	knee_angle_l	ankle_angle_l	subtalar_angle_l	mtp_angle_l	lumbar_extension	lumbar_bending	lumbar_rotation	arm_flex_r	arm_add_r	arm_rot_r	elbow_flex_r	pro_sup_r	arm_flex_l	arm_add_l	arm_rot_l	elbow_flex_l	pro_sup_l
      0.00000000	      2.67432777	     -4.01670206	      4.35590892	     -2.07633653	      0.96657610	      0.33571948	      5.74973892	     -3.94120276	      0.16533516	     58.29336258	     -1.39229056	    -21.11808941	      0.00000000	     -3.96286293	      1.03912903	    -11.74570315	      0.00022359	      5.11839701	     -8.24452817	      0.00000000	     -8.66284667	      2.89898601	     -1.69907501	      7.66146252	    -11.70042024	     30.87052808	     19.46909307	     55.99918949	     -3.61577836	    -13.69670215	     25.67542625	     13.66644057	     47.06276250
      0.01666670	     -0.01583178	     -4.18866587	      5.07540102	     -2.07595918	      0.95831246	      0.33707966	      8.72485525	     -3.70752251	      1.19221675	     58.16332876	      2.13770693	    -20.30391224	      0.00000000	     -0.25074787	      1.17353348	    -18.00808077	      0.92715690	      7.04821652	     -1.43806755	      0.00000000	     -4.94577164	      2.70368101	     -2.79080711	      5.80668265	     -9.52425201	     12.86579469	     20.62257046	     60.98534431	     -5.53303850	    -12.59363278	      7.54129701	     14.43104575	     48.59174868
      0.03333330	     -1.26115019	     -4.06761902	      4.70431813	     -2.07750595	      0.95364122	      0.33905639	      9.36361198	     -3.46839267	      2.30779054	     55.52296245	      6.94395321	    -17.72937646	      0.00000000	      0.99590331	      1.29520779	    -21.33275715	      0.82510680	      5.38841219	      0.13051294	      0.00000000	     -2.72115746	      2.33049987	     -2.55855756	      5.11637486	     -8.64942259	      3.51987903	     19.91438312	     78.80168434	     -6.10957509	    -12.09808904	     -5.47649465	     14.84758237	     66.86907912
      0.05000000	     -1.10429783	     -3.57301708	      4.94595366	     -2.07848651	      0.95239996	      0.34047259	      7.87238082	     -3.68170453	      2.90293672	     52.64706626	     11.73494928	    -13.74598857	      0.00000000	      0.73513154	      1.79888536	    -22.48783469	      0.60054957	      4.71228453	      0.56662222	      0.00000000	     -2.73122383	      1.57712833	     -2.81300112	      4.89439628	     -8.64935865	      3.22297472	     19.89080431	     78.42731555	     -6.13587649	    -12.85672815	     -5.72117424	     14.80007550	     66.86965432
      0.06666670	     -1.24006182	     -3.16912161	      5.06127687	     -2.07905509	      0.95223955	      0.34213978	      6.68922873	     -4.01337866	      2.86474543	     48.75381006	     15.32408729	    -10.25542851	      0.00000000	      0.95889894	      2.07882416	    -23.44449117	      0.83147647	      4.43712858	      1.12769273	      0.00000000	     -2.86739026	      1.09529011	     -3.02351713	      4.73822982	     -8.60270220	      2.76490237	     20.34978207	     77.83548181	     -6.12846872	    -13.27589036	     -6.25891822	     15.20157184	     66.64901360
      0.08333330	     -1.03629267	     -2.85168939	      5.18675975	     -2.07874829	      0.95264979	      0.34418744	      5.77403787	     -4.19680601	      2.47012109	     45.28258401	     16.85918327	     -7.92312178	      0.00000000	      0.82052193	      2.17303959	    -24.06845164	      1.05034727	      4.27724650	      1.65495668	      0.00000000	     -3.53390127	      0.77228506	     -3.06637800	      4.71651762	     -8.50614861	      2.33396428	     20.72310229	     77.20752600	     -5.82057594	    -13.49488489	     -6.96148870	     15.83045601	     66.29891224
